# This file uses centimeters as units for non-parametric coordinates.

mtllib HammerColor.mtl
g default
v 0.381701 3.579532 -0.381701
v 0.000000 3.579532 -0.539807
v -0.381701 3.579532 -0.381701
v -0.539807 3.579532 0.000000
v -0.381701 3.579532 0.381701
v 0.000000 3.579532 0.539807
v 0.381701 3.579532 0.381701
v 0.539807 3.579532 0.000000
v 0.381701 13.960902 -0.381701
v 0.000000 13.960902 -0.539807
v -0.381701 13.960902 -0.381701
v -0.539807 13.960902 0.000000
v -0.381701 13.960902 0.381701
v 0.000000 13.960902 0.539807
v 0.381701 13.960902 0.381701
v 0.539807 13.960902 0.000000
v 0.000000 3.579532 0.000000
v 0.000000 13.960902 0.000000
v 0.000000 5.443946 0.988666
v -0.543286 5.443946 0.699092
v -0.929909 5.443946 0.000000
v -0.543286 5.443946 -0.699092
v 0.000000 5.443946 -0.988666
v 0.543286 5.443946 -0.699092
v 0.929909 5.443946 0.000000
v 0.543286 5.443946 0.699092
v -0.504846 8.918861 -0.000000
v -0.383958 8.918861 -0.309152
v 0.000000 8.918861 -0.437208
v 0.383958 8.918861 -0.309152
v 0.504846 8.918861 -0.000000
v 0.383958 8.918861 0.309152
v 0.000000 8.918861 0.437208
v -0.383958 8.918861 0.309152
v -0.449507 12.605428 -0.000000
v -0.380699 11.664748 -0.000000
v -0.313197 11.664367 -0.236422
v -0.341330 12.605527 -0.302768
v 0.000000 11.663657 -0.334378
v 0.000000 12.602487 -0.427452
v 0.313197 11.664367 -0.236422
v 0.341330 12.605527 -0.302768
v 0.380699 11.664748 -0.000000
v 0.449507 12.605428 -0.000000
v 0.313197 11.664367 0.236422
v 0.341330 12.605527 0.302768
v 0.000000 11.663657 0.334378
v 0.000000 12.602487 0.427452
v -0.313197 11.664367 0.236422
v -0.341330 12.605527 0.302768
vt 0.610485 0.045765
vt 0.500000 0.000000
vt 0.389515 0.045765
vt 0.343750 0.156250
vt 0.389515 0.266735
vt 0.500000 0.312500
vt 0.610485 0.266735
vt 0.656250 0.156250
vt 0.375000 0.312500
vt 0.406250 0.312500
vt 0.437500 0.312500
vt 0.468750 0.312500
vt 0.500000 0.312500
vt 0.531250 0.312500
vt 0.562500 0.312500
vt 0.593750 0.312500
vt 0.625000 0.312500
vt 0.610485 0.733265
vt 0.500000 0.687500
vt 0.389515 0.733265
vt 0.343750 0.843750
vt 0.389515 0.954235
vt 0.500000 1.000000
vt 0.610485 0.954235
vt 0.656250 0.843750
vt 0.500000 0.156250
vt 0.500000 0.843750
vt 0.531250 0.500000
vt 0.500000 0.500000
vt 0.468750 0.500000
vt 0.437500 0.500000
vt 0.406250 0.500000
vt 0.625000 0.500000
vt 0.375000 0.500000
vt 0.593750 0.500000
vt 0.562500 0.500000
vt 0.375000 0.593750
vt 0.375000 0.640625
vt 0.625000 0.633717
vt 0.468750 0.593750
vt 0.437500 0.633717
vt 0.437500 0.593750
vt 0.406250 0.633707
vt 0.406250 0.593750
vt 0.375000 0.633717
vt 0.625000 0.593750
vt 0.593750 0.633723
vt 0.593750 0.593750
vt 0.562500 0.633717
vt 0.562500 0.593750
vt 0.531250 0.633707
vt 0.531250 0.593750
vt 0.500000 0.633717
vt 0.500000 0.593750
vt 0.468750 0.633723
vt 0.468750 0.664055
vt 0.437500 0.687500
vt 0.437500 0.664060
vt 0.406250 0.687500
vt 0.375000 0.664060
vt 0.406250 0.663908
vt 0.375000 0.687500
vt 0.625000 0.664060
vt 0.625000 0.687500
vt 0.593750 0.687500
vt 0.593750 0.664055
vt 0.562500 0.687500
vt 0.562500 0.664060
vt 0.531250 0.687500
vt 0.531250 0.663908
vt 0.500000 0.687500
vt 0.500000 0.664060
vt 0.468750 0.687500
vn 0.426866 -0.199739 -0.881981
vn 0.426866 -0.199739 -0.881981
vn 0.419287 0.016416 -0.907705
vn 0.419406 0.014949 -0.907676
vn -0.426866 -0.199739 -0.881981
vn -0.426866 -0.199739 -0.881981
vn -0.419406 0.014949 -0.907676
vn -0.419287 0.016416 -0.907705
vn -0.880298 -0.168007 -0.443677
vn -0.880298 -0.168007 -0.443677
vn -0.893136 0.003150 -0.449777
vn -0.893136 0.002713 -0.449778
vn -0.880298 -0.168007 0.443677
vn -0.880298 -0.168007 0.443677
vn -0.893136 0.002713 0.449778
vn -0.893136 0.003150 0.449777
vn -0.426866 -0.199739 0.881981
vn -0.426866 -0.199739 0.881981
vn -0.419287 0.016416 0.907705
vn -0.419406 0.014949 0.907676
vn 0.426865 -0.199739 0.881981
vn 0.426865 -0.199739 0.881981
vn 0.419406 0.014949 0.907676
vn 0.419287 0.016416 0.907705
vn 0.880298 -0.168007 0.443677
vn 0.880298 -0.168007 0.443677
vn 0.893136 0.003150 0.449777
vn 0.893136 0.002713 0.449778
vn 0.880298 -0.168007 -0.443677
vn 0.880298 -0.168007 -0.443677
vn 0.893136 0.002713 -0.449778
vn 0.893136 0.003150 -0.449777
vn 0.000000 -1.000000 0.000000
vn 0.000000 -1.000000 0.000000
vn 0.000000 -1.000000 0.000000
vn 0.000000 -1.000000 0.000000
vn 0.000000 -1.000000 0.000001
vn 0.000000 -1.000000 0.000001
vn 0.000000 -1.000000 0.000000
vn 0.000000 -1.000000 0.000000
vn 0.000000 -1.000000 0.000000
vn 0.000000 1.000000 0.000000
vn 0.000000 1.000000 0.000000
vn 0.000000 1.000000 0.000000
vn 0.000000 1.000000 0.000001
vn 0.000000 1.000000 0.000000
vn 0.000000 1.000000 -0.000001
vn 0.000000 1.000000 0.000000
vn 0.000000 1.000000 0.000001
vn 0.000000 1.000000 0.000001
vn -0.373182 0.097719 0.922598
vn -0.372659 0.097198 0.922864
vn -0.905999 0.083028 0.415057
vn -0.906307 0.082712 0.414447
vn -0.906307 0.082712 -0.414447
vn -0.905999 0.083028 -0.415057
vn -0.372659 0.097198 -0.922864
vn -0.373182 0.097719 -0.922598
vn 0.373182 0.097719 -0.922598
vn 0.372659 0.097198 -0.922864
vn 0.905999 0.083028 -0.415057
vn 0.906307 0.082712 -0.414447
vn 0.906307 0.082712 0.414446
vn 0.905999 0.083028 0.415057
vn 0.372658 0.097198 0.922864
vn 0.373182 0.097719 0.922598
vn -0.937221 -0.056921 0.344059
vn -0.946586 0.013119 0.322185
vn -0.946608 0.012807 0.322133
vn -0.937070 -0.056886 0.344477
vn -0.946586 0.013119 -0.322185
vn -0.937221 -0.056921 -0.344059
vn -0.937070 -0.056886 -0.344477
vn -0.946608 0.012807 -0.322133
vn -0.311798 0.005286 -0.950134
vn -0.347718 -0.076151 -0.934502
vn -0.347825 -0.076116 -0.934465
vn -0.311829 0.005024 -0.950125
vn 0.311829 0.005024 -0.950125
vn 0.347825 -0.076116 -0.934465
vn 0.347718 -0.076151 -0.934502
vn 0.311798 0.005286 -0.950134
vn 0.946608 0.012807 -0.322133
vn 0.937070 -0.056886 -0.344477
vn 0.937221 -0.056921 -0.344060
vn 0.946586 0.013119 -0.322185
vn 0.946586 0.013119 0.322184
vn 0.937221 -0.056921 0.344059
vn 0.937070 -0.056886 0.344477
vn 0.946608 0.012807 0.322133
vn 0.311798 0.005286 0.950134
vn 0.347718 -0.076151 0.934502
vn 0.347825 -0.076116 0.934465
vn 0.311829 0.005024 0.950125
vn -0.311829 0.005024 0.950125
vn -0.347825 -0.076116 0.934465
vn -0.347718 -0.076151 0.934502
vn -0.311798 0.005286 0.950134
vn -0.930525 -0.055395 -0.362015
vn -0.930525 -0.055395 -0.362015
vn -0.363590 -0.070881 -0.928858
vn -0.363590 -0.070881 -0.928858
vn 0.363590 -0.070881 -0.928858
vn 0.363590 -0.070881 -0.928858
vn 0.930525 -0.055395 -0.362015
vn 0.930525 -0.055395 -0.362015
vn 0.930525 -0.055395 0.362015
vn 0.930525 -0.055395 0.362015
vn 0.363590 -0.070881 0.928858
vn 0.363590 -0.070881 0.928858
vn -0.363590 -0.070881 0.928858
vn -0.363590 -0.070881 0.928858
vn -0.930525 -0.055395 0.362015
vn -0.930525 -0.055395 0.362015
s 1
g handleBase
usemtl initialShadingGroup
f 1/9/1 2/10/2 23/32/3 24/34/4
s 2
f 2/10/5 3/11/6 22/31/7 23/32/8
s 3
f 3/11/9 4/12/10 21/30/11 22/31/12
s 4
f 4/12/13 5/13/14 20/29/15 21/30/16
s 5
f 5/13/17 6/14/18 19/28/19 20/29/20
s 6
f 6/14/21 7/15/22 26/36/23 19/28/24
s 7
f 7/15/25 8/16/26 25/35/27 26/36/28
s 8
f 8/16/29 1/17/30 24/33/31 25/35/32
s 9
f 2/2/33 1/1/34 17/26/35
f 3/3/36 2/2/33 17/26/35
f 4/4/37 3/3/36 17/26/35
f 5/5/38 4/4/37 17/26/35
f 6/6/39 5/5/38 17/26/35
f 7/7/40 6/6/39 17/26/35
f 8/8/41 7/7/40 17/26/35
f 1/1/34 8/8/41 17/26/35
s 10
f 9/24/42 10/23/43 18/27/44
f 10/23/43 11/22/45 18/27/44
f 11/22/45 12/21/46 18/27/44
f 12/21/46 13/20/47 18/27/44
f 13/20/47 14/19/48 18/27/44
f 14/19/48 15/18/49 18/27/44
f 15/18/49 16/25/50 18/27/44
f 16/25/50 9/24/42 18/27/44
s 5
f 20/29/20 19/28/19 33/52/51 34/54/52
s 4
f 21/30/16 20/29/15 34/54/53 27/40/54
s 3
f 22/31/12 21/30/11 27/40/55 28/42/56
s 2
f 23/32/8 22/31/7 28/42/57 29/44/58
s 1
f 24/34/4 23/32/3 29/44/59 30/37/60
s 8
f 25/35/32 24/33/31 30/46/61 31/48/62
s 7
f 26/36/28 25/35/27 31/48/63 32/50/64
s 6
f 19/28/24 26/36/23 32/50/65 33/52/66
s 4
f 35/56/67 36/55/68 49/53/69 50/72/70
s 3
f 36/55/71 35/56/72 38/58/73 37/41/74
s 2
f 37/41/75 38/58/76 40/61/77 39/43/78
s 1
f 39/43/79 40/61/80 42/38/81 41/45/82
s 8
f 41/39/83 42/63/84 44/66/85 43/47/86
s 7
f 43/47/87 44/66/88 46/68/89 45/49/90
s 6
f 45/49/91 46/68/92 48/70/93 47/51/94
s 5
f 47/51/95 48/70/96 50/72/97 49/53/98
s 3
f 28/42/56 27/40/55 36/55/71 37/41/74
s 2
f 29/44/58 28/42/57 37/41/75 39/43/78
s 1
f 30/37/60 29/44/59 39/43/79 41/45/82
s 8
f 31/48/62 30/46/61 41/39/83 43/47/86
s 7
f 32/50/64 31/48/63 43/47/87 45/49/90
s 6
f 33/52/66 32/50/65 45/49/91 47/51/94
s 5
f 34/54/52 33/52/51 47/51/95 49/53/98
s 4
f 27/40/54 34/54/53 49/53/69 36/55/68
s 3
f 38/58/73 35/56/72 12/73/99 11/57/100
s 2
f 40/61/77 38/58/76 11/57/101 10/59/102
s 1
f 42/60/81 40/61/80 10/59/103 9/62/104
s 8
f 44/66/85 42/63/84 9/64/105 16/65/106
s 7
f 46/68/89 44/66/88 16/65/107 15/67/108
s 6
f 48/70/93 46/68/92 15/67/109 14/69/110
s 5
f 50/72/97 48/70/96 14/69/111 13/71/112
s 4
f 35/56/67 50/72/70 13/71/113 12/73/114
g default
v -1.123372 13.960903 1.296476
v 1.123372 13.960903 1.296476
v -1.123372 16.262925 1.296476
v 1.123372 16.262925 1.296476
v -1.123372 16.262925 -1.296476
v 1.123372 16.262925 -1.296476
v -1.123372 13.960903 -1.296476
v 1.123372 13.960903 -1.296476
v -1.323372 13.760903 1.896476
v 1.323372 13.760903 1.896476
v 1.323372 16.462925 1.896476
v -1.323372 16.462925 1.896476
v -1.323372 16.462925 -1.896476
v 1.323372 16.462925 -1.896476
v 1.323372 13.760903 -1.896476
v -1.323372 13.760903 -1.896476
v -0.523372 14.560904 3.496476
v 0.523372 14.560904 3.496476
v 0.523372 15.662925 3.496476
v -0.523372 15.662925 3.496476
v -0.523372 15.662925 -3.496476
v 0.523372 15.662925 -3.496476
v 0.523372 14.560904 -3.496476
v -0.523372 14.560904 -3.496476
vt 0.375000 0.000000
vt 0.375000 1.000000
vt 0.625000 1.000000
vt 0.625000 0.750000
vt 0.625000 0.000000
vt 0.375000 0.250000
vt 0.375000 0.500000
vt 0.625000 0.250000
vt 0.125000 0.250000
vt 0.125000 0.000000
vt 0.625000 0.500000
vt 0.875000 0.250000
vt 0.875000 0.000000
vt 0.375000 0.750000
vt 0.375000 0.000000
vt 0.375000 0.250000
vt 0.625000 0.000000
vt 0.625000 0.250000
vt 0.375000 0.500000
vt 0.375000 0.750000
vt 0.625000 0.500000
vt 0.625000 0.750000
vt 0.375000 0.250000
vt 0.375000 0.000000
vt 0.625000 0.000000
vt 0.625000 0.250000
vt 0.375000 0.750000
vt 0.375000 0.500000
vt 0.625000 0.500000
vt 0.625000 0.750000
vn 0.000000 0.000000 1.000000
vn 0.000000 0.000000 1.000000
vn 0.000000 0.000000 1.000000
vn 0.000000 0.000000 1.000000
vn 0.000000 1.000000 0.000000
vn 0.000000 1.000000 0.000000
vn 0.000000 1.000000 0.000000
vn 0.000000 1.000000 0.000000
vn 0.000000 0.000000 -1.000000
vn 0.000000 0.000000 -1.000000
vn 0.000000 0.000000 -1.000000
vn 0.000000 0.000000 -1.000000
vn 0.000000 -1.000000 0.000000
vn 0.000000 -1.000000 0.000000
vn 0.000000 -1.000000 0.000000
vn 0.000000 -1.000000 0.000000
vn 1.000000 0.000000 0.000000
vn 1.000000 0.000000 0.000000
vn 1.000000 0.000000 0.000000
vn 1.000000 0.000000 0.000000
vn -1.000000 0.000000 0.000000
vn -1.000000 0.000000 0.000000
vn -1.000000 0.000000 0.000000
vn -1.000000 0.000000 0.000000
vn 0.000000 -0.948683 -0.316228
vn 0.000000 -0.948683 -0.316228
vn 0.000000 -0.948683 -0.316228
vn 0.000000 -0.948683 -0.316228
vn 0.948683 0.000000 -0.316228
vn 0.948683 0.000000 -0.316228
vn 0.948683 0.000000 -0.316228
vn 0.948683 0.000000 -0.316228
vn 0.000000 0.948683 -0.316229
vn 0.000000 0.948683 -0.316229
vn 0.000000 0.948683 -0.316229
vn 0.000000 0.948683 -0.316229
vn -0.948683 0.000000 -0.316228
vn -0.948683 0.000000 -0.316228
vn -0.948683 0.000000 -0.316228
vn -0.948683 0.000000 -0.316228
vn 0.000000 0.948683 0.316229
vn 0.000000 0.948683 0.316229
vn 0.000000 0.948683 0.316229
vn 0.000000 0.948683 0.316229
vn 0.948683 0.000000 0.316228
vn 0.948683 0.000000 0.316228
vn 0.948683 0.000000 0.316228
vn 0.948683 0.000000 0.316228
vn 0.000000 -0.948683 0.316228
vn 0.000000 -0.948683 0.316228
vn 0.000000 -0.948683 0.316228
vn 0.000000 -0.948683 0.316228
vn -0.948683 0.000000 0.316228
vn -0.948683 0.000000 0.316228
vn -0.948683 0.000000 0.316228
vn -0.948683 0.000000 0.316228
vn 0.000000 -0.894427 0.447214
vn 0.000000 -0.894427 0.447214
vn 0.000000 -0.894427 0.447214
vn 0.000000 -0.894427 0.447214
vn 0.894427 0.000000 0.447214
vn 0.894427 0.000000 0.447214
vn 0.894427 0.000000 0.447214
vn 0.894427 0.000000 0.447214
vn 0.000000 0.894427 0.447214
vn 0.000000 0.894427 0.447214
vn 0.000000 0.894427 0.447214
vn 0.000000 0.894427 0.447214
vn -0.894427 0.000000 0.447214
vn -0.894427 0.000000 0.447214
vn -0.894427 0.000000 0.447214
vn -0.894427 0.000000 0.447214
vn 0.000000 0.894427 -0.447214
vn 0.000000 0.894427 -0.447214
vn 0.000000 0.894427 -0.447214
vn 0.000000 0.894427 -0.447214
vn 0.894427 0.000000 -0.447214
vn 0.894427 0.000000 -0.447214
vn 0.894427 0.000000 -0.447214
vn 0.894427 0.000000 -0.447214
vn 0.000000 -0.894427 -0.447214
vn 0.000000 -0.894427 -0.447214
vn 0.000000 -0.894427 -0.447214
vn 0.000000 -0.894427 -0.447214
vn -0.894427 0.000000 -0.447214
vn -0.894427 0.000000 -0.447214
vn -0.894427 0.000000 -0.447214
vn -0.894427 0.000000 -0.447214
s off
g head
usemtl initialShadingGroup
f 67/97/115 68/98/116 69/99/117 70/96/118
f 53/79/119 54/81/120 56/84/121 55/80/122
f 71/101/123 72/102/124 73/103/125 74/100/126
f 57/87/127 58/77/128 52/76/129 51/75/130
f 52/78/131 58/86/132 56/85/133 54/81/134
f 57/83/135 51/74/136 53/79/137 55/82/138
f 51/74/139 52/78/140 60/90/141 59/88/142
f 52/78/143 54/81/144 61/91/145 60/90/146
f 54/81/147 53/79/148 62/89/149 61/91/150
f 53/79/151 51/74/152 59/88/153 62/89/154
f 55/80/155 56/84/156 64/94/157 63/92/158
f 56/84/159 58/77/160 65/95/161 64/94/162
f 58/77/163 57/87/164 66/93/165 65/95/166
f 57/87/167 55/80/168 63/92/169 66/93/170
f 59/88/171 60/90/172 68/98/173 67/97/174
f 60/90/175 61/91/176 69/99/177 68/98/178
f 61/91/179 62/89/180 70/96/181 69/99/182
f 62/89/183 59/88/184 67/97/185 70/96/186
f 63/92/187 64/94/188 72/102/189 71/101/190
f 64/94/191 65/95/192 73/103/193 72/102/194
f 65/95/195 66/93/196 74/100/197 73/103/198
f 66/93/199 63/92/200 71/101/201 74/100/202
